<svg version="1.0" xmlns="http://www.w3.org/2000/svg"  width="1950.000000pt" height="1200.000000pt" viewBox="0 0 300.000000 197.000000"  preserveAspectRatio="xMidYMid meet">  <g transform="translate(0.000000,197.000000) scale(0.100000,-0.100000)" fill="#000000" stroke="none"> <path d="M1795 1042 c-48 -5 -135 -33 -135 -42 0 -15 23 -24 58 -22 32 3 33 2 21 -20 -7 -13 -13 -57 -14 -98 l-2 -74 -32 -9 c-18 -4 -31 -13 -28 -20 4 -14 90 -19 127 -7 14 5 38 11 53 14 37 9 25 26 -18 26 l-34 0 5 53 c3 28 10 76 15 105 l10 52 40 0 c44 0 50 11 17 27 -33 16 -49 19 -83 15z m15 -30 c0 -4 -4 -12 -10 -18 -13 -13 -33 -162 -26 -196 4 -21 2 -28 -10 -28 -23 0 -17 237 6 244 26 7 40 6 40 -2z"></path> <path d="M2577 1029 c-30 -23 -44 -65 -53 -164 -5 -63 -4 -72 16 -93 40 -43 54 -27 61 71 3 48 8 90 11 93 3 2 11 -16 17 -41 28 -113 105 -174 159 -127 19 15 22 32 27 145 l6 127 -30 0 c-16 0 -32 -4 -36 -9 -3 -6 -8 -53 -12 -106 -3 -53 -9 -92 -13 -88 -9 12 -58 133 -65 164 -4 15 -18 32 -31 38 -31 14 -27 15 -57 -10z m49 -17 c6 -4 15 -18 19 -32 17 -55 68 -159 80 -164 26 -10 40 26 44 111 1 45 7 83 13 83 5 0 8 -43 6 -106 -2 -89 -6 -109 -21 -118 -28 -18 -68 12 -99 74 -48 97 -46 95 -69 74 -15 -13 -19 -31 -19 -80 0 -64 -12 -89 -28 -57 -19 38 8 196 37 213 20 11 23 12 37 2z"></path> <path d="M533 1025 c-36 -16 -40 -22 -19 -39 10 -8 12 -25 6 -71 -5 -33 -9 -82 -9 -108 -1 -46 0 -49 36 -63 68 -29 175 -1 233 60 l24 27 -29 24 c-17 14 -40 28 -52 31 -23 6 -22 6 8 35 17 16 29 36 27 46 -2 10 -27 30 -57 46 -61 30 -117 34 -168 12z m77 -12 c0 -3 -7 -15 -17 -25 -16 -17 -20 -54 -22 -175 -1 -43 -4 -51 -16 -47 -13 5 -15 26 -13 125 3 117 3 118 28 122 14 2 28 5 33 6 4 0 7 -2 7 -6z m70 -38 c10 -13 9 -19 -6 -36 -17 -19 -65 -49 -79 -49 -3 0 -3 11 0 25 3 14 7 36 10 50 4 20 12 25 34 25 16 0 34 -7 41 -15z m50 -15 c0 -4 -9 -17 -20 -30 -11 -13 -20 -27 -20 -32 0 -4 -5 -8 -11 -8 -6 0 -1 16 11 35 12 20 19 43 16 52 -5 13 -4 14 9 3 8 -7 15 -16 15 -20z m-24 -103 l27 -14 -24 -22 c-24 -23 -50 -36 -94 -47 -24 -6 -25 -4 -25 42 l0 49 45 3 c25 1 57 -3 71 -11z m50 -33 c-3 -9 -6 -18 -6 -20 0 -2 -7 -4 -15 -4 -13 0 -13 3 -3 20 15 24 33 27 24 4z"></path> <path d="M879 1013 c-5 -16 -14 -39 -19 -53 -14 -39 -28 -101 -34 -156 -8 -74 10 -81 131 -51 51 13 95 25 98 29 3 3 -6 13 -19 22 -21 13 -32 14 -75 4 -28 -6 -53 -9 -56 -7 -4 5 35 162 50 200 4 10 -3 19 -20 27 -37 17 -44 15 -56 -15z m33 -71 c-6 -15 -16 -51 -22 -80 -11 -46 -10 -55 5 -72 15 -17 15 -19 -4 -25 -36 -11 -44 3 -37 64 7 62 32 148 50 170 9 12 12 10 14 -8 2 -13 -1 -35 -6 -49z"></path> <path d="M1131 1026 c-46 -12 -63 -32 -40 -47 8 -5 26 -6 42 -3 29 6 34 -4 16 -37 -5 -11 -12 -48 -14 -82 -2 -34 -4 -67 -4 -73 -1 -6 -14 -14 -31 -17 -32 -7 -42 -36 -12 -38 65 -6 185 17 179 35 -2 6 -18 11 -35 11 -37 0 -37 -4 -17 111 15 82 27 115 43 112 4 0 21 0 37 1 l30 2 -24 19 c-27 23 -98 25 -170 6z m99 -10 c0 -2 -7 -16 -15 -32 -7 -15 -17 -53 -20 -83 -4 -31 -10 -68 -15 -82 -4 -14 -4 -33 2 -42 7 -13 5 -17 -10 -17 -16 0 -18 7 -15 63 2 34 9 81 14 103 8 30 8 48 0 62 -9 18 -8 21 12 25 34 6 47 7 47 3z"></path> <path d="M254 1020 c-38 -15 -75 -78 -87 -145 -19 -109 16 -147 133 -147 55 0 76 4 91 18 51 46 65 162 29 222 -31 51 -109 75 -166 52z m26 -27 c0 -3 -6 -14 -14 -22 -18 -21 -46 -104 -46 -139 0 -15 7 -38 16 -50 13 -19 13 -22 0 -22 -26 0 -55 47 -49 83 9 65 23 103 48 130 24 26 45 35 45 20z m100 -13 c20 -11 40 -66 40 -109 0 -28 -37 -111 -50 -111 -4 0 0 20 8 44 15 41 15 48 -5 115 -11 39 -19 71 -16 71 2 0 13 -5 23 -10z m-42 -27 c33 -93 36 -113 19 -149 -21 -43 -37 -50 -76 -29 -28 14 -31 20 -31 65 0 51 13 92 38 123 21 25 38 21 50 -10z"></path> <path d="M1348 1025 c-3 -3 1 -27 8 -54 6 -26 15 -79 19 -117 9 -87 17 -101 62 -113 52 -15 80 3 107 64 11 28 40 85 64 127 23 42 42 82 42 88 0 17 -55 11 -77 -10 -12 -10 -27 -36 -33 -57 -18 -55 -57 -140 -68 -147 -6 -3 -12 11 -15 32 -10 76 -30 167 -39 180 -10 12 -60 17 -70 7z m74 -126 c24 -109 32 -123 59 -108 20 10 79 121 79 146 0 22 31 63 47 63 11 0 9 -8 -9 -37 -12 -21 -41 -74 -63 -118 -34 -67 -45 -80 -65 -81 -48 -1 -56 11 -70 98 -23 152 -23 154 -10 142 6 -7 21 -54 32 -105z"></path> <path d="M2115 1018 c-61 -11 -109 -46 -136 -100 -18 -35 -20 -47 -10 -77 7 -25 7 -37 0 -42 -8 -5 -8 -8 -1 -13 6 -4 51 4 99 18 48 14 133 28 188 32 55 3 125 15 155 25 30 11 62 19 72 19 10 0 18 5 18 10 0 10 -18 14 -57 11 -12 -1 -25 4 -30 11 -22 34 -75 70 -138 93 -75 27 -84 28 -160 13z m135 -27 c0 -11 -60 -21 -128 -21 -33 0 -51 -4 -47 -10 3 -5 41 -10 85 -10 63 0 79 3 84 16 9 22 59 12 102 -21 35 -27 36 -50 2 -61 -31 -10 -32 3 -1 20 24 13 25 15 7 16 -12 0 -26 -10 -34 -25 -16 -30 -37 -37 -120 -40 -94 -3 -104 -4 -96 -12 8 -8 -82 -31 -100 -26 -7 3 -8 22 -3 60 8 57 34 97 74 113 27 12 175 12 175 1z m149 -110 c17 -11 6 -17 -46 -26 -51 -8 -55 0 -10 19 40 18 39 18 56 7z"></path> <path d="M2115 875 c-16 -7 -23 -14 -15 -14 8 0 26 6 40 14 32 18 14 18 -25 0z"></path> </g> </svg>
