 <svg version="1.0" xmlns="http://www.w3.org/2000/svg"  width="971.6000000pt" height="753.600000pt" viewBox="0 -40 300.000000 200.000000"  preserveAspectRatio="xMidYMid meet">  <g transform="translate(0.000000,300.000000) scale(0.100000,-0.100000)" fill="#ff9900" stroke="none"> <path d="M554 1575 c-46 -21 -60 -41 -42 -63 13 -14 14 -33 7 -117 -4 -55 -8 -130 -9 -167 0 -61 2 -68 28 -88 22 -18 37 -21 84 -18 69 5 119 40 157 108 l24 44 -50 46 -50 46 23 29 c50 63 34 118 -49 165 -57 33 -77 35 -123 15z m101 -30 l30 -13 -36 -1 c-21 -1 -43 -8 -52 -18 -21 -24 -34 -138 -17 -158 10 -12 10 -18 0 -30 -8 -10 -11 -41 -8 -95 3 -83 2 -86 -21 -71 -11 7 -13 43 -10 177 2 93 0 176 -4 185 -16 33 64 49 118 24z m75 -79 c0 -12 -11 -38 -24 -60 -14 -21 -22 -44 -20 -51 4 -9 -3 -11 -20 -8 l-26 5 30 34 c35 41 47 80 31 105 -17 28 -13 34 9 14 11 -10 20 -28 20 -39z m-45 14 c8 -25 -9 -58 -49 -92 -38 -34 -50 -35 -42 -5 3 12 6 43 6 70 l0 47 39 0 c31 0 41 -5 46 -20z m23 -173 c31 -24 -4 -84 -69 -117 -21 -11 -41 -20 -44 -20 -3 0 -5 33 -5 74 l0 75 33 3 c38 4 67 -1 85 -15z m52 -47 c0 -20 -11 -39 -36 -64 -36 -35 -94 -63 -94 -45 0 5 4 9 10 9 18 0 87 69 100 100 16 38 20 38 20 0z"></path> <path d="M1195 1583 c-11 -2 -29 -8 -40 -12 -11 -5 -32 -13 -47 -20 -33 -13 -37 -45 -8 -61 14 -8 26 -8 40 0 24 13 25 3 10 -50 -9 -29 -17 -132 -20 -237 0 -14 -10 -27 -27 -35 -17 -8 -28 -21 -28 -33 0 -18 7 -20 55 -20 30 0 66 6 80 12 14 7 30 13 37 13 19 0 26 20 13 35 -8 10 -21 13 -37 8 l-26 -6 7 69 c14 146 29 249 39 262 5 6 25 12 43 12 42 0 43 11 3 44 -29 25 -50 29 -94 19z m47 -50 c-26 -24 -33 -39 -41 -93 -20 -127 -25 -249 -12 -264 7 -8 10 -19 7 -25 -6 -8 -86 -21 -86 -13 0 2 11 13 25 24 24 18 25 25 25 117 0 54 3 100 6 104 3 3 8 29 10 58 5 60 -8 83 -43 74 -13 -3 -23 -1 -23 4 0 15 73 40 120 40 l44 1 -32 -27z"></path> <path d="M1775 1583 c-19 -4 -43 -13 -92 -36 -49 -22 -15 -65 39 -52 l25 6 -14 -78 c-8 -43 -12 -111 -10 -151 l3 -73 -33 -14 c-35 -15 -43 -39 -16 -49 23 -9 100 3 146 22 48 20 47 48 -1 44 l-33 -2 6 62 c2 35 7 102 11 149 3 47 9 90 13 97 4 6 25 15 46 20 l40 8 -27 27 c-26 26 -52 31 -103 20z m54 -38 c-15 -8 -30 -22 -34 -32 -4 -10 -12 -80 -18 -156 -8 -108 -8 -143 1 -158 17 -28 7 -39 -35 -39 l-36 0 20 23 c18 19 21 39 26 169 6 153 4 161 -38 170 -36 7 34 36 90 37 49 0 49 0 24 -14z"></path> <path d="M2572 1563 c-27 -34 -39 -91 -47 -234 -6 -98 -5 -120 9 -148 13 -24 23 -31 39 -29 21 3 22 9 28 133 8 157 7 148 19 140 6 -4 8 -9 6 -13 -8 -13 14 -121 35 -169 27 -63 56 -93 91 -93 50 0 56 24 59 240 l4 195 -26 3 c-35 4 -38 -8 -46 -186 -3 -78 -8 -140 -11 -138 -6 6 -41 138 -59 221 -23 105 -58 132 -101 78z m68 -55 c23 -103 61 -217 78 -238 17 -21 19 -21 32 -5 10 13 16 56 20 151 3 73 8 136 13 140 9 9 7 -298 -2 -341 -5 -25 -11 -30 -35 -30 -25 0 -33 7 -52 45 -13 25 -31 77 -40 117 -18 80 -34 103 -55 77 -17 -20 -18 -28 -20 -147 -3 -129 -23 -126 -27 4 -4 99 12 230 31 261 22 35 44 22 57 -34z"></path> <path d="M885 1568 c-12 -36 -44 -190 -49 -238 -18 -165 -18 -172 4 -195 l21 -22 81 33 c44 18 90 35 102 38 20 5 20 6 -4 31 -26 28 -48 31 -97 13 -18 -6 -35 -9 -38 -6 -7 7 31 238 47 287 9 31 8 36 -13 52 -28 22 -48 24 -54 7z m35 -84 c-18 -75 -19 -83 -32 -172 -12 -79 -11 -83 9 -104 21 -20 22 -20 64 -4 28 12 45 14 52 7 7 -7 6 -12 -4 -15 -8 -2 -42 -14 -76 -26 -34 -12 -67 -19 -74 -15 -17 11 -4 187 21 294 23 95 28 107 42 93 5 -5 4 -28 -2 -58z"></path> <path d="M1352 1557 c-8 -9 -9 -24 -2 -48 5 -19 16 -103 23 -187 16 -166 23 -185 79 -197 38 -9 64 14 79 69 20 70 70 219 89 262 10 22 22 57 25 77 7 35 6 37 -19 37 -14 0 -35 -9 -45 -19 -18 -18 -51 -112 -51 -145 0 -21 -50 -168 -61 -181 -5 -5 -9 8 -10 30 0 22 -3 51 -5 65 -3 14 -11 71 -18 128 -8 57 -15 105 -17 107 -13 13 -57 15 -67 2z m42 -25 c6 -11 11 -38 31 -187 9 -66 21 -125 27 -132 20 -24 38 -2 72 87 10 24 -3 -61 -15 -103 -11 -42 -27 -52 -63 -43 -30 8 -44 48 -45 136 -1 59 -13 152 -27 223 -5 25 8 38 20 19z m226 -1 c0 -5 -12 -40 -26 -77 -15 -38 -30 -80 -35 -94 -6 -17 -7 -8 -4 30 9 85 33 150 56 150 5 0 9 -4 9 -9z"></path> <path d="M2160 1560 c-61 -9 -93 -24 -124 -55 -50 -50 -61 -83 -62 -186 0 -53 -4 -101 -8 -107 -13 -21 32 -13 107 18 46 19 112 35 180 45 79 11 128 24 177 48 38 17 69 35 70 38 0 4 -20 10 -45 13 -25 4 -45 12 -45 18 0 27 -79 109 -128 134 -29 15 -55 30 -58 35 -3 5 -8 8 -12 8 -4 -1 -27 -5 -52 -9z m74 -36 c44 -17 -7 -37 -97 -39 -42 0 -62 -6 -75 -19 -16 -18 -16 -18 3 -10 11 4 50 9 87 10 43 1 76 7 92 18 14 9 31 16 39 16 16 0 77 -53 77 -67 0 -5 9 -18 20 -28 24 -21 26 -37 5 -29 -9 4 -15 0 -15 -9 0 -9 -12 -18 -29 -22 -16 -3 -37 -15 -47 -26 -12 -14 -30 -19 -66 -19 -33 0 -47 4 -42 11 7 12 -17 6 -70 -17 l-31 -13 35 -2 35 -1 -45 -13 c-25 -7 -58 -18 -73 -24 -36 -14 -38 -14 -31 4 4 9 1 15 -7 15 -9 0 -10 3 -2 11 8 8 8 19 0 39 -8 21 -7 40 2 72 27 90 55 128 106 141 30 7 111 8 129 1z m200 -175 c-6 -11 -24 -2 -24 11 0 5 7 7 15 4 8 -4 12 -10 9 -15z m-27 -15 c3 -9 -95 -49 -103 -41 -12 12 61 58 85 54 8 -1 16 -7 18 -13z"></path> <path d="M2330 1385 c-19 -23 -8 -26 20 -5 19 15 21 20 9 20 -9 0 -22 -7 -29 -15z"></path> <path d="M2133 1353 c4 -3 -5 -15 -20 -25 -35 -22 -25 -23 21 -1 35 16 39 33 9 33 -9 0 -13 -3 -10 -7z"></path> <path d="M247 1549 c-40 -23 -87 -177 -87 -286 0 -58 25 -116 59 -136 32 -19 121 -23 151 -7 58 31 88 213 56 335 -19 72 -55 105 -114 105 -26 0 -55 -5 -65 -11z m118 -30 c32 -26 45 -76 45 -177 0 -97 -15 -164 -41 -188 -24 -21 -38 -10 -17 13 41 48 46 116 19 242 -17 77 -36 111 -62 111 -21 0 -59 -67 -73 -129 -29 -128 -18 -194 40 -240 23 -18 24 -21 8 -21 -11 0 -33 9 -51 19 -26 16 -33 28 -39 67 -15 104 15 253 62 305 21 23 78 22 109 -2z m-29 -65 c27 -90 36 -168 24 -216 -15 -59 -40 -84 -69 -69 -30 17 -41 43 -43 108 -2 94 38 229 66 220 5 -2 15 -21 22 -43z"></path> </g> </svg>
